<svg xmlns="http://www.w3.org/2000/svg">
    <defs>
        <symbol id="unchecked" viewBox="0 0 24 24" fill="none">
            <rect x="0.5" y="0.5" width="23" height="23" rx="3.5" fill="#F8FAFB"/>
            <rect x="0.5" y="0.5" width="23" height="23" rx="3.5" stroke="#AAB7D4"/>
        </symbol>
        <symbol id="checked" viewBox="0 0 24 24" fill="none">
            <rect x="0.5" y="0.5" width="23" height="23" rx="3.5" fill="#F8FAFB"/>
            <g>
                <path d="M19.0473 8.09221L10.2973 16.8422C9.97189 17.1676 9.44425 17.1676 9.11882 16.8422L4.95215 12.6755L6.13066 11.497L9.70807 15.0744L17.8688 6.9137L19.0473 8.09221Z" fill="black"/>
            </g>
            <rect x="0.5" y="0.5" width="23" height="23" rx="3.5" stroke="#AAB7D4"/>
        </symbol>
        <symbol id="tag-gray" viewBox="0 0 11 20" fill="none">
            <path d="M0 0H2.0775C3.29264 0 4.44189 0.552359 5.20098 1.50122L10.001 7.50122C11.1697 8.96209 11.1697 11.0379 10.001 12.4988L5.20098 18.4988C4.44189 19.4476 3.29264 20 2.0775 20H0V0Z" fill="#EBEEF6"/>
        </symbol>
        <symbol id="add-task" viewBox="0 0 20 20" fill="none">
            <rect width="20" height="20" rx="4" fill="#EBEEF6"/>
            <mask style="mask-type:alpha" maskUnits="userSpaceOnUse" x="0" y="0" width="20" height="20">
                <rect width="20" height="20" fill="#D9D9D9"/>
            </mask>
            <g mask="url(#mask0_1_146)">
                <path d="M10.0007 15.9486C9.73465 15.9486 9.51017 15.8571 9.32719 15.6741C9.14422 15.4911 9.05273 15.2667 9.05273 15.0007V10.9486H5.00065C4.73465 10.9486 4.51016 10.8571 4.32719 10.6741C4.14422 10.4911 4.05273 10.2667 4.05273 10.0007C4.05273 9.73465 4.14422 9.51017 4.32719 9.32719C4.51016 9.14422 4.73465 9.05273 5.00065 9.05273H9.05273V5.00065C9.05273 4.73465 9.14422 4.51017 9.32719 4.32719C9.51017 4.14422 9.73465 4.05273 10.0007 4.05273C10.2667 4.05273 10.4911 4.14422 10.6741 4.32719C10.8571 4.51017 10.9486 4.73465 10.9486 5.00065V9.05273H15.0007C15.2667 9.05273 15.4911 9.14422 15.6741 9.32719C15.8571 9.51017 15.9486 9.73465 15.9486 10.0007C15.9486 10.2667 15.8571 10.4911 15.6741 10.6741C15.4911 10.8571 15.2667 10.9486 15.0007 10.9486H10.9486V15.0007C10.9486 15.2667 10.8571 15.4911 10.6741 15.6741C10.4911 15.8571 10.2667 15.9486 10.0007 15.9486Z" fill="#3D8FEC"/>
            </g>
        </symbol>
    </defs>
</svg>
